<svg width="24" height="24" viewBox="0 0 24 24" fill="none" xmlns="http://www.w3.org/2000/svg">
<path d="M14.9411 5.19C15.3192 4.75428 15.6074 4.24817 15.7893 3.70074C15.9712 3.1533 16.0432 2.57533 16.0011 2C14.8405 2.09369 13.7631 2.63956 13.0011 3.52C12.6362 3.94198 12.3597 4.43288 12.1879 4.96364C12.0162 5.49441 11.9526 6.05424 12.0011 6.61C12.5673 6.61472 13.1269 6.4891 13.6367 6.24286C14.1465 5.99662 14.5929 5.63638 14.9411 5.19V5.19ZM17.4611 12.63C17.4678 11.8637 17.6697 11.1118 18.0476 10.4452C18.4255 9.77859 18.9671 9.21926 19.6211 8.82C19.2084 8.22524 18.6627 7.73483 18.0274 7.38768C17.3921 7.04052 16.6846 6.84615 15.9611 6.82C14.4011 6.66 12.9611 7.73 12.1311 7.73C11.3011 7.73 10.1311 6.84 8.83113 6.86C7.98126 6.888 7.15315 7.13578 6.42758 7.57919C5.70201 8.02259 5.10374 8.64648 4.69113 9.39C2.93113 12.45 4.24113 17 6.00113 19.47C6.80113 20.68 7.80113 22.05 9.12113 22C10.4411 21.95 10.8711 21.18 12.4011 21.18C13.9311 21.18 14.4011 22 15.7011 21.97C17.0011 21.94 17.9211 20.73 18.7611 19.52C19.3562 18.6415 19.821 17.6816 20.1411 16.67C19.3486 16.332 18.6724 15.7693 18.1962 15.0513C17.7199 14.3333 17.4644 13.4916 17.4611 12.63V12.63Z" fill="#111111"/>
</svg>
