<svg width="24" height="24" viewBox="0 0 24 24" fill="none" xmlns="http://www.w3.org/2000/svg">
<g opacity="0.8">
<path fill-rule="evenodd" clip-rule="evenodd" d="M11.9992 20.5714C14.2724 20.5714 16.4526 19.6684 18.0601 18.0609C19.6675 16.4535 20.5706 14.2733 20.5706 12C20.5706 9.72673 19.6675 7.54656 18.0601 5.9391C16.4526 4.33165 14.2724 3.42859 11.9992 3.42859C9.72588 3.42859 7.5457 4.33165 5.93825 5.9391C4.33079 7.54656 3.42773 9.72673 3.42773 12C3.42773 14.2733 4.33079 16.4535 5.93825 18.0609C7.5457 19.6684 9.72588 20.5714 11.9992 20.5714V20.5714ZM13.0706 7.7143C13.0706 7.43014 12.9577 7.15762 12.7568 6.95669C12.5558 6.75576 12.2833 6.64287 11.9992 6.64287C11.715 6.64287 11.4425 6.75576 11.2415 6.95669C11.0406 7.15762 10.9277 7.43014 10.9277 7.7143V12C10.9278 12.2842 11.0407 12.5566 11.2417 12.7575L14.2717 15.7886C14.3712 15.8881 14.4894 15.9671 14.6195 16.021C14.7495 16.0748 14.8889 16.1026 15.0297 16.1026C15.1705 16.1026 15.3099 16.0748 15.4399 16.021C15.57 15.9671 15.6882 15.8881 15.7877 15.7886C15.8873 15.689 15.9662 15.5709 16.0201 15.4408C16.074 15.3107 16.1017 15.1713 16.1017 15.0306C16.1017 14.8898 16.074 14.7504 16.0201 14.6203C15.9662 14.4902 15.8873 14.3721 15.7877 14.2725L13.0706 11.5564V7.7143Z" fill="#121212"/>
</g>
</svg>
