<svg width="24" height="24" viewBox="0 0 24 24" fill="none" xmlns="http://www.w3.org/2000/svg">
<g opacity="0.6">
<path d="M17.9997 9.60003C18.7307 9.60005 19.4444 9.37755 20.0458 8.96211C20.6473 8.54667 21.108 7.95797 21.3668 7.27431C21.6255 6.59066 21.67 5.84443 21.4943 5.13487C21.3187 4.42531 20.9311 3.78604 20.3833 3.30207C19.8355 2.8181 19.1533 2.51236 18.4275 2.42552C17.7017 2.33868 16.9667 2.47485 16.3201 2.81591C15.6736 3.15698 15.1462 3.68679 14.8081 4.33488C14.47 4.98296 14.3372 5.71862 14.4273 6.44403L8.49932 9.40803C7.9908 8.91765 7.34924 8.58773 6.65455 8.45936C5.95987 8.33099 5.24277 8.40985 4.59258 8.68611C3.94239 8.96237 3.38786 9.42382 2.99805 10.013C2.60824 10.6022 2.40039 11.293 2.40039 11.9994C2.40039 12.7059 2.60824 13.3967 2.99805 13.9859C3.38786 14.575 3.94239 15.0365 4.59258 15.3127C5.24277 15.589 5.95987 15.6679 6.65455 15.5395C7.34924 15.4111 7.9908 15.0812 8.49932 14.5908L14.4273 17.5548C14.3223 18.3975 14.5186 19.2502 14.9815 19.9622C15.4443 20.6741 16.144 21.1996 16.9568 21.4456C17.7695 21.6916 18.6431 21.6424 19.4231 21.3066C20.2031 20.9708 20.8393 20.3701 21.2193 19.6107C21.5992 18.8512 21.6985 17.9819 21.4994 17.1563C21.3004 16.3307 20.816 15.6021 20.1317 15.0992C19.4475 14.5963 18.6074 14.3514 17.7601 14.4079C16.9128 14.4645 16.1127 14.8187 15.5013 15.408L9.57332 12.444C9.60964 12.1491 9.60964 11.8509 9.57332 11.556L15.5013 8.59203C16.1469 9.21603 17.0277 9.60003 17.9997 9.60003Z" fill="#121212"/>
</g>
</svg>
